<mxfile host="app.diagrams.net" modified="2021-02-22T08:47:20.838Z" agent="5.0 (Windows NT 10.0; Win64; x64) AppleWebKit/537.36 (KHTML, like Gecko) Chrome/88.0.4324.182 Safari/537.36" etag="b71ffn6gtOIUWJdSk-Vd" version="14.4.2" type="github">
  <diagram id="YnC2eTQ2aiaDHOMznIX0" name="Page-1">
    <mxGraphModel dx="920" dy="559" grid="1" gridSize="10" guides="1" tooltips="1" connect="1" arrows="1" fold="1" page="1" pageScale="1" pageWidth="850" pageHeight="1100" math="0" shadow="0">
      <root>
        <mxCell id="0" />
        <mxCell id="1" parent="0" />
        <mxCell id="ewQnGBE6HqdGQTObXIG2-1" value="&lt;font style=&quot;font-size: 18px&quot;&gt;&lt;b&gt;&amp;nbsp; &amp;nbsp; &amp;nbsp; &amp;nbsp; &lt;font style=&quot;font-size: 18px&quot;&gt;Pod&lt;/font&gt;&lt;/b&gt;&lt;/font&gt;" style="rounded=1;whiteSpace=wrap;html=1;align=left;verticalAlign=top;fontSize=13;strokeWidth=3;" vertex="1" parent="1">
          <mxGeometry x="180" y="50" width="360" height="280" as="geometry" />
        </mxCell>
        <mxCell id="ewQnGBE6HqdGQTObXIG2-2" value="" style="edgeStyle=orthogonalEdgeStyle;rounded=0;orthogonalLoop=1;jettySize=auto;html=1;entryX=0.207;entryY=0.118;entryDx=0;entryDy=0;entryPerimeter=0;strokeWidth=3;endArrow=none;endFill=0;" edge="1" parent="1" source="ewQnGBE6HqdGQTObXIG2-3" target="ewQnGBE6HqdGQTObXIG2-8">
          <mxGeometry relative="1" as="geometry" />
        </mxCell>
        <mxCell id="ewQnGBE6HqdGQTObXIG2-3" value="client" style="rounded=0;whiteSpace=wrap;html=1;fillColor=#e1d5e7;strokeColor=#9673a6;" vertex="1" parent="1">
          <mxGeometry x="205" y="110" width="80" height="50" as="geometry" />
        </mxCell>
        <mxCell id="ewQnGBE6HqdGQTObXIG2-4" value="Socket" style="rounded=0;whiteSpace=wrap;html=1;fillColor=#60a917;strokeColor=#2D7600;fontColor=#ffffff;" vertex="1" parent="1">
          <mxGeometry x="205" y="180" width="80" height="20" as="geometry" />
        </mxCell>
        <mxCell id="ewQnGBE6HqdGQTObXIG2-7" style="edgeStyle=orthogonalEdgeStyle;rounded=0;orthogonalLoop=1;jettySize=auto;html=1;strokeColor=#000000;entryX=-0.011;entryY=0.44;entryDx=0;entryDy=0;entryPerimeter=0;strokeWidth=3;" edge="1" parent="1" source="ewQnGBE6HqdGQTObXIG2-8" target="ewQnGBE6HqdGQTObXIG2-14">
          <mxGeometry relative="1" as="geometry">
            <Array as="points">
              <mxPoint x="350" y="132" />
            </Array>
          </mxGeometry>
        </mxCell>
        <mxCell id="ewQnGBE6HqdGQTObXIG2-8" value="&lt;font style=&quot;font-size: 14px&quot;&gt;&lt;b&gt;ebpf&lt;/b&gt;&lt;/font&gt;" style="rounded=0;whiteSpace=wrap;html=1;fillColor=#ffcd28;strokeColor=#d79b00;gradientColor=#ffa500;" vertex="1" parent="1">
          <mxGeometry x="205" y="210" width="185" height="20" as="geometry" />
        </mxCell>
        <mxCell id="ewQnGBE6HqdGQTObXIG2-10" value="Socket" style="rounded=0;whiteSpace=wrap;html=1;fillColor=#60a917;strokeColor=#2D7600;fontColor=#ffffff;" vertex="1" parent="1">
          <mxGeometry x="310" y="180" width="80" height="20" as="geometry" />
        </mxCell>
        <mxCell id="ewQnGBE6HqdGQTObXIG2-13" style="edgeStyle=orthogonalEdgeStyle;rounded=0;orthogonalLoop=1;jettySize=auto;html=1;entryX=0.16;entryY=0.55;entryDx=0;entryDy=0;entryPerimeter=0;strokeColor=#000000;strokeWidth=3;" edge="1" parent="1" source="ewQnGBE6HqdGQTObXIG2-14" target="ewQnGBE6HqdGQTObXIG2-29">
          <mxGeometry relative="1" as="geometry">
            <Array as="points">
              <mxPoint x="470" y="394" />
            </Array>
          </mxGeometry>
        </mxCell>
        <mxCell id="ewQnGBE6HqdGQTObXIG2-14" value="envoy" style="rounded=0;whiteSpace=wrap;html=1;" vertex="1" parent="1">
          <mxGeometry x="430" y="110" width="80" height="50" as="geometry" />
        </mxCell>
        <mxCell id="ewQnGBE6HqdGQTObXIG2-15" value="Socket" style="rounded=0;whiteSpace=wrap;html=1;fillColor=#60a917;strokeColor=#2D7600;fontColor=#ffffff;" vertex="1" parent="1">
          <mxGeometry x="430" y="180" width="80" height="20" as="geometry" />
        </mxCell>
        <mxCell id="ewQnGBE6HqdGQTObXIG2-16" value="TCP/IP&lt;span style=&quot;color: rgba(0 , 0 , 0 , 0) ; font-family: monospace ; font-size: 0px&quot;&gt;%3CmxGraphModel%3E%3Croot%3E%3CmxCell%20id%3D%220%22%2F%3E%3CmxCell%20id%3D%221%22%20parent%3D%220%22%2F%3E%3CmxCell%20id%3D%222%22%20value%3D%22Socket%22%20style%3D%22rounded%3D0%3BwhiteSpace%3Dwrap%3Bhtml%3D1%3B%22%20vertex%3D%221%22%20parent%3D%221%22%3E%3CmxGeometry%20x%3D%22205%22%20y%3D%22180%22%20width%3D%2280%22%20height%3D%2220%22%20as%3D%22geometry%22%2F%3E%3C%2FmxCell%3E%3C%2Froot%3E%3C%2FmxGraphModel%3E&lt;/span&gt;" style="rounded=0;whiteSpace=wrap;html=1;fillColor=#fff2cc;strokeColor=#d6b656;" vertex="1" parent="1">
          <mxGeometry x="430" y="210" width="80" height="20" as="geometry" />
        </mxCell>
        <mxCell id="ewQnGBE6HqdGQTObXIG2-17" value="iptables" style="rounded=0;whiteSpace=wrap;html=1;fillColor=#f8cecc;strokeColor=#b85450;" vertex="1" parent="1">
          <mxGeometry x="430" y="240" width="80" height="20" as="geometry" />
        </mxCell>
        <mxCell id="ewQnGBE6HqdGQTObXIG2-18" value="Ethernet" style="rounded=0;whiteSpace=wrap;html=1;fillColor=#0050ef;strokeColor=#001DBC;fontColor=#ffffff;" vertex="1" parent="1">
          <mxGeometry x="430" y="270" width="80" height="20" as="geometry" />
        </mxCell>
        <mxCell id="ewQnGBE6HqdGQTObXIG2-19" value="eth0" style="rounded=0;whiteSpace=wrap;html=1;fillColor=#f5f5f5;strokeColor=#666666;fontColor=#333333;" vertex="1" parent="1">
          <mxGeometry x="430" y="300" width="80" height="20" as="geometry" />
        </mxCell>
        <mxCell id="ewQnGBE6HqdGQTObXIG2-20" value="&lt;span&gt;&amp;nbsp; &amp;nbsp; &amp;nbsp; &amp;nbsp;&amp;nbsp;&lt;/span&gt;&lt;b&gt;&lt;font style=&quot;font-size: 18px&quot;&gt;Pod&lt;/font&gt;&lt;/b&gt;" style="rounded=1;whiteSpace=wrap;html=1;align=left;verticalAlign=top;strokeWidth=3;" vertex="1" parent="1">
          <mxGeometry x="620" y="50" width="360" height="280" as="geometry" />
        </mxCell>
        <mxCell id="ewQnGBE6HqdGQTObXIG2-21" value="server" style="rounded=0;whiteSpace=wrap;html=1;fillColor=#e1d5e7;strokeColor=#9673a6;" vertex="1" parent="1">
          <mxGeometry x="875" y="110" width="80" height="50" as="geometry" />
        </mxCell>
        <mxCell id="ewQnGBE6HqdGQTObXIG2-40" style="edgeStyle=orthogonalEdgeStyle;rounded=0;orthogonalLoop=1;jettySize=auto;html=1;entryX=0.5;entryY=1;entryDx=0;entryDy=0;strokeWidth=3;" edge="1" parent="1" source="ewQnGBE6HqdGQTObXIG2-23" target="ewQnGBE6HqdGQTObXIG2-21">
          <mxGeometry relative="1" as="geometry">
            <Array as="points">
              <mxPoint x="915" y="200" />
              <mxPoint x="915" y="200" />
            </Array>
          </mxGeometry>
        </mxCell>
        <mxCell id="ewQnGBE6HqdGQTObXIG2-23" value="&lt;font style=&quot;font-size: 14px&quot;&gt;&lt;b&gt;ebpf&lt;/b&gt;&lt;/font&gt;" style="rounded=0;whiteSpace=wrap;html=1;fillColor=#ffcd28;strokeColor=#d79b00;gradientColor=#ffa500;" vertex="1" parent="1">
          <mxGeometry x="770" y="210" width="185" height="20" as="geometry" />
        </mxCell>
        <mxCell id="ewQnGBE6HqdGQTObXIG2-24" value="Socket" style="rounded=0;whiteSpace=wrap;html=1;fillColor=#60a917;strokeColor=#2D7600;fontColor=#ffffff;" vertex="1" parent="1">
          <mxGeometry x="875" y="180" width="80" height="20" as="geometry" />
        </mxCell>
        <mxCell id="ewQnGBE6HqdGQTObXIG2-27" style="edgeStyle=orthogonalEdgeStyle;rounded=0;orthogonalLoop=1;jettySize=auto;html=1;entryX=0.212;entryY=0.099;entryDx=0;entryDy=0;entryPerimeter=0;strokeColor=#000000;strokeWidth=3;endArrow=none;endFill=0;" edge="1" parent="1" source="ewQnGBE6HqdGQTObXIG2-28" target="ewQnGBE6HqdGQTObXIG2-23">
          <mxGeometry relative="1" as="geometry" />
        </mxCell>
        <mxCell id="ewQnGBE6HqdGQTObXIG2-28" value="envoy" style="rounded=0;whiteSpace=wrap;html=1;" vertex="1" parent="1">
          <mxGeometry x="770" y="110" width="80" height="50" as="geometry" />
        </mxCell>
        <mxCell id="ewQnGBE6HqdGQTObXIG2-29" value="Network" style="ellipse;shape=cloud;whiteSpace=wrap;html=1;fillColor=#f5f5f5;strokeColor=#666666;fontColor=#333333;" vertex="1" parent="1">
          <mxGeometry x="520" y="350" width="120" height="80" as="geometry" />
        </mxCell>
        <mxCell id="ewQnGBE6HqdGQTObXIG2-30" style="edgeStyle=orthogonalEdgeStyle;rounded=0;orthogonalLoop=1;jettySize=auto;html=1;entryX=0;entryY=0.5;entryDx=0;entryDy=0;strokeColor=#000000;exitX=0.875;exitY=0.5;exitDx=0;exitDy=0;exitPerimeter=0;strokeWidth=3;" edge="1" parent="1" source="ewQnGBE6HqdGQTObXIG2-29" target="ewQnGBE6HqdGQTObXIG2-28">
          <mxGeometry relative="1" as="geometry">
            <Array as="points">
              <mxPoint x="690" y="390" />
              <mxPoint x="690" y="135" />
            </Array>
          </mxGeometry>
        </mxCell>
        <mxCell id="ewQnGBE6HqdGQTObXIG2-31" value="Socket" style="rounded=0;whiteSpace=wrap;html=1;fillColor=#60a917;strokeColor=#2D7600;fontColor=#ffffff;" vertex="1" parent="1">
          <mxGeometry x="650" y="180" width="80" height="20" as="geometry" />
        </mxCell>
        <mxCell id="ewQnGBE6HqdGQTObXIG2-32" value="TCP/IP&lt;span style=&quot;color: rgba(0 , 0 , 0 , 0) ; font-family: monospace ; font-size: 0px&quot;&gt;%3CmxGraphModel%3E%3Croot%3E%3CmxCell%20id%3D%220%22%2F%3E%3CmxCell%20id%3D%221%22%20parent%3D%220%22%2F%3E%3CmxCell%20id%3D%222%22%20value%3D%22Socket%22%20style%3D%22rounded%3D0%3BwhiteSpace%3Dwrap%3Bhtml%3D1%3B%22%20vertex%3D%221%22%20parent%3D%221%22%3E%3CmxGeometry%20x%3D%22205%22%20y%3D%22180%22%20width%3D%2280%22%20height%3D%2220%22%20as%3D%22geometry%22%2F%3E%3C%2FmxCell%3E%3C%2Froot%3E%3C%2FmxGraphModel%3E&lt;/span&gt;" style="rounded=0;whiteSpace=wrap;html=1;fillColor=#fff2cc;strokeColor=#d6b656;" vertex="1" parent="1">
          <mxGeometry x="650" y="210" width="80" height="20" as="geometry" />
        </mxCell>
        <mxCell id="ewQnGBE6HqdGQTObXIG2-33" value="iptables" style="rounded=0;whiteSpace=wrap;html=1;fillColor=#f8cecc;strokeColor=#b85450;" vertex="1" parent="1">
          <mxGeometry x="650" y="240" width="80" height="20" as="geometry" />
        </mxCell>
        <mxCell id="ewQnGBE6HqdGQTObXIG2-34" value="Ethernet" style="rounded=0;whiteSpace=wrap;html=1;fillColor=#0050ef;strokeColor=#001DBC;fontColor=#ffffff;" vertex="1" parent="1">
          <mxGeometry x="650" y="270" width="80" height="20" as="geometry" />
        </mxCell>
        <mxCell id="ewQnGBE6HqdGQTObXIG2-35" value="eth0" style="rounded=0;whiteSpace=wrap;html=1;fillColor=#f5f5f5;strokeColor=#666666;fontColor=#333333;" vertex="1" parent="1">
          <mxGeometry x="650" y="300" width="80" height="20" as="geometry" />
        </mxCell>
        <mxCell id="ewQnGBE6HqdGQTObXIG2-36" value="Socket" style="rounded=0;whiteSpace=wrap;html=1;fillColor=#60a917;strokeColor=#2D7600;fontColor=#ffffff;" vertex="1" parent="1">
          <mxGeometry x="770" y="180" width="80" height="20" as="geometry" />
        </mxCell>
      </root>
    </mxGraphModel>
  </diagram>
</mxfile>
